<?xml version="1.0" encoding="UTF-8" standalone="no"?>
<!-- Created with Inkscape (http://www.inkscape.org/) -->

<svg
   xmlns:dc="http://purl.org/dc/elements/1.1/"
   xmlns:cc="http://creativecommons.org/ns#"
   xmlns:rdf="http://www.w3.org/1999/02/22-rdf-syntax-ns#"
   xmlns:svg="http://www.w3.org/2000/svg"
   xmlns="http://www.w3.org/2000/svg"
   xmlns:sodipodi="http://sodipodi.sourceforge.net/DTD/sodipodi-0.dtd"
   xmlns:inkscape="http://www.inkscape.org/namespaces/inkscape"
   width="128"
   height="128"
   viewBox="0 0 128 128"
   id="svg4162"
   version="1.1"
   inkscape:version="0.91 r13725"
   sodipodi:docname="drawing3c.svg"
   inkscape:export-filename="C:\Users\Marcel Dopita\Downloads\drawing3c.png"
   inkscape:export-xdpi="90"
   inkscape:export-ydpi="90">
  <defs
     id="defs4164" />
  <sodipodi:namedview
     id="base"
     pagecolor="#ffffff"
     bordercolor="#666666"
     borderopacity="1.0"
     inkscape:pageopacity="0.0"
     inkscape:pageshadow="2"
     inkscape:zoom="2.8284271"
     inkscape:cx="42.348008"
     inkscape:cy="36.832342"
     inkscape:document-units="px"
     inkscape:current-layer="layer1"
     showgrid="false"
     inkscape:window-width="1711"
     inkscape:window-height="1220"
     inkscape:window-x="495"
     inkscape:window-y="51"
     inkscape:window-maximized="0"
     units="px" />
  <metadata
     id="metadata4167">
    <rdf:RDF>
      <cc:Work
         rdf:about="">
        <dc:format>image/svg+xml</dc:format>
        <dc:type
           rdf:resource="http://purl.org/dc/dcmitype/StillImage" />
        <dc:title></dc:title>
      </cc:Work>
    </rdf:RDF>
  </metadata>
  <g
     inkscape:label="Layer 1"
     inkscape:groupmode="layer"
     id="layer1"
     transform="translate(0,-924.36216)">
    <path
       style="fill:#d50000;fill-opacity:1;fill-rule:evenodd;stroke:none;stroke-width:1px;stroke-linecap:butt;stroke-linejoin:miter;stroke-opacity:1"
       d="m 63.986467,935.72639 a 53.06249,53.06249 0 0 0 -30.029172,9.38244 l 18.691218,30.29035 23.563257,-38.18607 a 53.06249,53.06249 0 0 0 -12.225303,-1.48672 z m 31.631422,10.53766 -30.513029,49.35493 24.546035,39.54392 A 53.06249,53.06249 0 0 0 117.04984,988.78808 53.06249,53.06249 0 0 0 95.617889,946.26405 Z M 18.79705,961.10452 a 53.06249,53.06249 0 0 0 -7.872278,27.68356 53.06249,53.06249 0 0 0 11.284379,32.68622 L 39.154137,994.09542 18.79705,961.10452 Z m 32.928957,53.20898 -13.074142,21.0921 a 53.06249,53.06249 0 0 0 25.334602,6.4458 53.06249,53.06249 0 0 0 4.659411,-0.2444 l -16.919871,-27.2935 z"
       id="path3347"
       inkscape:connector-curvature="0" />
  </g>
</svg>
