<?xml version="1.0" encoding="UTF-8" standalone="no"?>
<!-- Created with Inkscape (http://www.inkscape.org/) -->

<svg
   xmlns:dc="http://purl.org/dc/elements/1.1/"
   xmlns:cc="http://creativecommons.org/ns#"
   xmlns:rdf="http://www.w3.org/1999/02/22-rdf-syntax-ns#"
   xmlns:svg="http://www.w3.org/2000/svg"
   xmlns="http://www.w3.org/2000/svg"
   xmlns:sodipodi="http://sodipodi.sourceforge.net/DTD/sodipodi-0.dtd"
   xmlns:inkscape="http://www.inkscape.org/namespaces/inkscape"
   width="128"
   height="128"
   viewBox="0 0 128 128"
   id="svg4162"
   version="1.1"
   inkscape:version="0.91 r13725"
   sodipodi:docname="icon3.svg"
   inkscape:export-filename="C:\Users\Marcel Dopita\Downloads\drawing3c.png"
   inkscape:export-xdpi="90"
   inkscape:export-ydpi="90">
  <defs
     id="defs4164" />
  <sodipodi:namedview
     id="base"
     pagecolor="#ffffff"
     bordercolor="#666666"
     borderopacity="1.0"
     inkscape:pageopacity="0.0"
     inkscape:pageshadow="2"
     inkscape:zoom="2.8284271"
     inkscape:cx="37.751814"
     inkscape:cy="50.974478"
     inkscape:document-units="px"
     inkscape:current-layer="layer1"
     showgrid="false"
     inkscape:window-width="1216"
     inkscape:window-height="755"
     inkscape:window-x="64"
     inkscape:window-y="1"
     inkscape:window-maximized="1"
     units="px" />
  <metadata
     id="metadata4167">
    <rdf:RDF>
      <cc:Work
         rdf:about="">
        <dc:format>image/svg+xml</dc:format>
        <dc:type
           rdf:resource="http://purl.org/dc/dcmitype/StillImage" />
        <dc:title></dc:title>
      </cc:Work>
    </rdf:RDF>
  </metadata>
  <g
     inkscape:label="Layer 1"
     inkscape:groupmode="layer"
     id="layer1"
     transform="translate(0,-924.36216)">
    <path
       style="fill:#4b7c39;fill-opacity:1;fill-rule:evenodd;stroke:none;stroke-width:1px;stroke-linecap:butt;stroke-linejoin:miter;stroke-opacity:1"
       d="m 73.200687,936.53238 a 53.06249,53.06249 0 0 0 -31.202205,4.02539 l 13.147392,33.07587 29.83622,-33.51422 a 53.06249,53.06249 0 0 0 -11.781407,-3.58704 z m 29.321023,15.87031 -38.61986,43.30659 17.306396,43.20552 a 53.06249,53.06249 0 0 0 35.035594,-40.9125 53.06249,53.06249 0 0 0 -13.72213,-45.59961 z m -78.230777,1.27521 a 53.06249,53.06249 0 0 0 -12.55988,25.89598 53.06249,53.06249 0 0 0 5.437041,34.14912 L 38.60994,989.70257 24.290933,953.6779 Z m 23.18905,58.1187 -16.538122,18.5013 a 53.06249,53.06249 0 0 0 23.830411,10.7472 53.06249,53.06249 0 0 0 4.631064,0.5684 l -11.923353,-29.8169 z"
       id="path3347"
       inkscape:connector-curvature="0" />
  </g>
</svg>
